<svg width="508" height="430" viewBox="0 0 508 430" fill="none" xmlns="http://www.w3.org/2000/svg" style="width: 100%; height: 100%;">
<g clip-path="url(#clip0_35_2194)">
<path d="M130.64 426.876C121.58 408.499 107.052 383.754 102.275 365.108C121.571 289.542 144.574 214.922 170.61 144.353C273.951 141.009 362.984 141.586 466.373 140.566C468.212 140.548 443.975 317.238 425.965 428.744C341.132 425.614 169.882 426.999 130.64 426.876Z" fill="#E3E3FF" stroke="#010101" stroke-width="1.5" stroke-linecap="round" stroke-linejoin="round"></path>
<path d="M215.859 275.636C228.426 259.55 231.83 238.419 238.47 219.116C241.481 210.364 245.279 201.765 250.978 194.473C256.677 187.181 264.438 182.066 273.419 179.83C282.4 177.594 290.956 179.741 297.724 186.054C301.868 189.92 305.665 197.184 307.607 202.508C316.197 226.061 318.764 239.051 320.015 258.515C320.148 260.583 322.442 259.955 321.766 261.914C321.094 263.863 319.717 265.487 318.245 266.931C314.15 270.944 309.147 273.898 304.072 276.566C290.656 283.618 276.34 288.954 261.582 292.403C252.13 294.612 242.195 296.04 232.766 293.736C225.048 291.85 217.968 287.439 215.861 275.637L215.859 275.636Z" fill="#010101" stroke="#010101" stroke-width="1.5" stroke-linecap="round" stroke-linejoin="round"></path>
<path d="M260.085 226.133C258.014 225.817 255.493 225.674 254.252 227.361C253.869 227.881 253.672 228.512 253.511 229.137C253.103 230.716 252.88 232.367 253.119 233.98C253.357 235.593 254.091 237.172 255.345 238.214C256.588 239.248 258.307 239.685 259.893 239.372C261.479 239.059 262.902 238.001 263.52 236.837C265.656 247.953 266.33 259.349 265.39 270.037C261.227 270.279 257.097 271.083 253.358 272.918C250.162 277.667 248.97 283.481 248.421 289.179C248.031 293.227 247.949 297.421 249.353 301.237C250.943 305.559 254.352 309.048 258.314 311.396C262.275 313.744 266.774 315.038 271.294 315.922C281.345 317.886 291.772 317.913 301.833 315.999C308.121 314.803 314.337 312.822 319.739 309.39C325.141 305.957 329.7 300.978 331.875 294.958C333.361 290.843 333.698 286.4 333.656 282.025C333.594 275.484 332.635 268.728 329.178 263.176C325.721 257.624 319.306 253.545 313.082 253.763C308.087 255.243 302.061 257.516 298.015 259.058C297.849 254.051 297.117 246.755 295.691 242.287C299.774 239.7 303.199 233.277 303.846 228.487C304.493 223.697 303.667 218.835 302.634 214.113C300.876 206.072 299.063 201.474 296.015 193.846C292.79 193.74 289.543 193.632 286.395 192.928C283.246 192.224 280.167 190.881 276.812 188.792C274.015 198.64 267.031 207.224 257.905 212.051C258.786 217.63 259.667 223.21 260.086 226.135L260.085 226.133Z" fill="white" stroke="#010101" stroke-width="1.5" stroke-linecap="round" stroke-linejoin="round"></path>
<path d="M376.238 205.261C385.242 195.205 393.694 184.656 401.845 174.33C409.025 138.668 414.597 102.682 419.18 66.365C417.399 61.569 415.066 58.463 413.285 53.667C411.493 48.841 409.672 43.821 410.096 38.69C410.15 38.034 410.25 37.357 410.61 36.805C411.084 36.078 411.925 35.692 412.73 35.368C419.034 32.83 425.955 31.843 432.717 32.517C434.564 32.701 436.463 33.031 438.006 34.063C440.433 35.685 441.493 38.682 442.223 41.509C444.062 48.627 445.338 54.342 444.868 61.897C442.106 100.213 439.344 138.528 436.582 176.844C436.137 183.013 435.668 189.293 433.398 195.047C431.448 199.99 428.253 204.325 425.093 208.597C414.9 222.379 404.696 236.175 393.562 249.209C393.245 249.58 392.904 249.967 392.44 250.118C391.84 250.314 391.191 250.069 390.629 249.782C387.261 248.067 384.923 244.867 382.939 241.649C379.941 236.785 377.45 231.609 375.519 226.231C373.266 219.955 370.96 211.153 376.235 205.261H376.238Z" fill="white" stroke="#010101" stroke-width="1.5" stroke-linecap="round" stroke-linejoin="round"></path>
<path d="M251.3 17.77C251.3 17.66 251.29 17.53 251.21 17.46C251.12 17.38 251 17.37 250.88 17.38C249.46 17.41 248.05 17.43 246.63 17.46C246.48 15.63 245.71 13.8 244.6 12.21C245.93 11.53 246.82 10.59 247.36 9.49C247.49 9.23 247.6 8.95 247.53 8.68C247.47 8.46 247.3 8.28 247.14 8.12C245.94 6.9 244.74 5.67 243.55 4.45C242.41 5.44 241.33 6.49 240.32 7.6C238.34 6.33 236.23 5.59 234.14 5.64C234.2 4.08 234.25 2.56 234.3 1.03C232.61 0.87 229.96 0.75 226.96 0.75C226.73 2.71 226.65 3.97 226.69 5.6C225.03 5.33 222.91 5.7 221.61 6.3C220.32 6.88 219.2 7.76 218.06 8.59C217.11 7.01 216.15 5.96 215.36 4.99C212.91 6.51 210.21 10.52 209.66 10.76C210.53 12.52 211.79 12.95 213.01 14.22C212.07 14.89 211.51 15.47 211.09 16.13C210.38 17.26 210.11 18.6 209.86 19.91C208.23 19.99 207.14 20.16 206.1 20.45C206.1 25.02 206.11 28.16 206.29 28.18C207.35 28.29 209.08 28.19 210.4 28.02C210.57 29.5 211.07 31.04 211.82 31.94C212.57 32.84 212.63 33.06 213.51 33.83C212.54 34.76 210.6 36.68 209.63 37.89C211.56 39.49 213.49 41.1 215.42 42.71C215.48 42.76 215.54 42.81 215.62 42.82C215.73 42.83 215.82 42.74 215.91 42.67C217.1 41.51 218.29 40.35 219.48 39.19C221.17 40.63 223.57 41.15 225.82 41.51C225.98 42.8 226.01 44.05 226.04 45.3C228.68 44.95 231.33 45.7 233.97 45.35C234.04 44.18 234.12 41.9 234.19 40.73C235.7 40.91 239.59 39.8 240.76 36.95C241.84 37.81 244.4 40.15 245.14 39.76C246.88 38.85 248.43 35.68 249.7 34.18C248.86 32.77 246.93 32.18 246.1 30.77C247.05 29 247.3 26.77 247.24 24.12C248.45 24.2 249.74 24.27 251.03 24.18C251.13 24.17 251.24 24.15 251.3 24.07C251.35 24.01 251.35 23.93 251.35 23.85C251.39 21.82 251.37 19.8 251.3 17.77ZM238.76 29.73C237.55 32.01 235.26 33.61 232.77 34.3C230.28 34.98 227.61 34.83 225.1 34.22C222.39 33.56 219.64 32.23 218.23 29.82C217.08 27.86 216.98 25.46 217.17 23.21C217.4 20.56 218.04 17.87 219.58 15.71C221.13 13.55 223.71 11.99 226.35 12.22C230.89 11.91 234.22 13.34 236.45 15.76C238.69 18.18 239.85 21.5 239.86 24.79C239.86 26.5 239.56 28.23 238.76 29.73Z" fill="#010101" stroke="#010101" stroke-width="1.5" stroke-linecap="round" stroke-linejoin="round"></path>
<path d="M358.77 70.4701C359.03 66.7101 359.02 59.0801 359.28 55.3101C356 54.8701 352.69 54.6301 349.37 54.5801C348.56 49.4701 346.16 44.3401 343.01 40.9701C345.68 38.7801 347.71 36.9001 350.3 34.7501C348.1 31.7301 344.68 26.6601 340.3 21.7201C336.73 24.2101 335.64 24.8601 333.01 27.3101C331.02 24.1601 330.32 23.1801 326.07 20.9501C323.32 19.5101 321.04 19.0101 317.1 19.0101C317.42 15.5601 317.3 14.2501 317.72 9.83005C310.63 9.83005 303.87 10.2601 300.67 9.68005C300.15 12.8601 300.33 14.9201 300.12 18.9001C298.43 18.9001 295.27 19.2101 292.5 19.9001C289.11 20.7501 286.6 22.6401 285.02 24.2201C282.5 21.6601 280.64 20.1101 278.63 18.8101C271.08 25.4901 265.92 30.1001 266.15 30.4301C267.51 32.3401 270.21 35.0601 272.42 36.9901C270.23 39.4401 268.42 42.5101 268.02 45.0701C267.63 47.6201 267.36 48.0401 267.39 50.6301C264.42 50.3701 259.24 50.8301 255.83 50.9701C256 56.5201 256.17 62.0601 256.34 67.6001C256.34 67.7601 256.35 67.9401 256.45 68.0801C256.59 68.2801 256.87 68.3201 257.12 68.3301C260.78 68.6001 263.61 68.0501 267.26 68.3101C267.36 73.2101 270 77.9501 272.71 82.1801C270.81 84.3501 267.96 87.2401 265.94 89.1201C270.39 92.9701 273.84 97.4101 278.29 101.26C280.33 99.6701 284.2 96.4601 286.25 94.8701C288.15 97.6301 295.69 102.43 302.1 100.18C302.26 103.23 301.31 109.77 303.04 110.43C307.08 111.97 315.15 110.16 319.47 110.06C320.58 106.62 319 103.4 320.12 99.9601C324.42 98.9401 328.47 96.1001 332.75 92.1201C334.4 94.2301 336.17 96.4801 338.21 98.4501C338.37 98.6001 338.56 98.7701 338.78 98.7501C338.95 98.7401 339.09 98.6201 339.23 98.5101C342.62 95.6101 345.95 92.6101 349.19 89.5301C349.37 89.3601 349.56 89.1601 349.57 88.9201C349.58 88.6601 349.4 88.4501 349.23 88.2701C347.1 85.9701 344.98 83.6601 342.86 81.3601C345.67 78.4301 347.57 74.49 348.57 70.34C361 70.8 358.7 71.3901 358.77 70.4701ZM334.54 63.0601C333.08 77.7401 324.11 83.4401 317.83 84.9601C311.88 86.3901 302.88 87.0301 295.64 83.7001C290.08 81.1501 286.87 77.3401 284.01 71.9401C280.92 66.0801 278.96 59.1301 281.02 52.8301C282.69 47.7301 286.6 42.2301 290.92 39.0301C295.97 35.2901 301.89 33.7501 308.15 33.0901C314.4 32.4301 322.52 33.2201 326.89 39.0301C333.4 46.1701 335.31 55.3001 334.54 63.0601Z" fill="#FF8B37" stroke="#010101" stroke-width="1.5" stroke-linecap="round" stroke-linejoin="round"></path>
<path d="M203.366 246.035C192.652 228.448 180.911 211.487 168.221 195.268C179.464 172.233 189.724 148.718 198.963 124.809C203.03 114.286 206.904 102.477 202.347 92.861C201.491 90.686 200.395 88.271 198.188 87.5C197.001 87.086 195.698 87.239 194.459 87.451C187.192 88.696 180.256 91.823 174.513 96.445C174.527 101.714 174.542 106.983 175.517 113.711C157.86 134.902 148.933 154.713 135.799 178.969C132.798 184.511 129.861 190.336 129.508 196.629C129.14 203.182 131.107 209.817 134.43 215.477C147.149 237.141 159.086 256.779 173.441 276.393C176.648 280.775 179.154 280.131 184.162 278.031C189.17 275.931 193.281 272.122 196.769 267.959C199.972 264.135 202.801 259.822 203.848 254.945C204.895 250.068 203.89 244.535 203.366 246.035Z" fill="white" stroke="#010101" stroke-width="1.5" stroke-linecap="round" stroke-linejoin="round"></path>
<path d="M311.171 426.19C321.543 387.208 331.915 347.122 342.287 308.14C361.183 291.44 377.942 272.069 392.689 251.27C385.858 236.428 379.875 220.989 375.101 205.184C363.747 219.458 350.996 232.62 337.088 244.42C328.824 248.353 320.967 251.256 313.027 253.913C313.444 262.822 314.021 271.544 314.599 280.266C314.781 283.008 314.863 286.065 313.063 288.141C311.778 289.623 309.8 290.267 307.917 290.819C293.651 295.002 278.935 297.646 264.106 298.691C262.661 298.793 261.138 298.865 259.84 298.222C257.781 297.203 256.935 294.754 256.365 292.528C254.65 285.831 253.677 278.944 253.468 272.033C246.137 275.542 238.029 278.483 229.706 280.568C219.543 267.977 210.106 254.622 200.728 240.914C191.253 254.787 181.935 264.67 168.086 274.213C181.078 291.868 190.733 312.155 202.753 330.396C195.428 354.404 187.442 378.21 179.607 402.329C222.501 411.228 265.46 420.915 311.171 426.188V426.19Z" fill="#7B5FF1" stroke="#010101" stroke-width="1.5" stroke-linecap="round" stroke-linejoin="round"></path>
<path d="M275.719 245.023C283.075 246.837 291.146 245.534 297.558 241.497Z" fill="white"></path>
<path d="M275.719 245.023C283.075 246.837 291.146 245.534 297.558 241.497" stroke="#010101" stroke-width="1.5" stroke-linecap="round" stroke-linejoin="round"></path>
<path d="M282.906 207.878C284.1 210.29 285.858 212.421 288 214.051C288.176 214.185 288.361 214.324 288.455 214.524C288.619 214.877 288.448 215.288 288.274 215.636C287.583 217.021 286.826 218.372 286.007 219.685" fill="white"></path>
<path d="M282.906 207.878C284.1 210.29 285.858 212.421 288 214.051C288.176 214.185 288.361 214.324 288.455 214.524C288.619 214.877 288.448 215.288 288.274 215.636C287.583 217.021 286.826 218.372 286.007 219.685" stroke="#010101" stroke-width="1.5" stroke-linecap="round" stroke-linejoin="round"></path>
<path d="M454.116 31.149C455.478 31.209 456.943 31.33 457.986 32.207C458.772 32.867 459.194 33.864 459.459 34.855C459.702 35.765 459.827 36.768 459.429 37.621C458.832 38.898 457.307 39.403 455.934 39.722C450.163 41.066 420.47 42.929 401.76 42.182C400.809 46.31 397.761 49.889 393.852 51.522C386.408 54.631 376.802 51.853 376.802 43.362C381.649 43.028 386.479 43.279 391.269 42.464C391.327 39.296 390.834 31.523 390.892 28.355C385.316 28.902 381.018 28.68 375.554 28.778C376.193 22.115 383.579 18.755 390.212 18.61C391.746 18.576 393.302 18.7 394.749 19.211C396.164 19.711 397.432 20.567 398.56 21.558C401.183 23.863 403.145 27.051 403.327 31.107C419.247 31.087 449.812 30.96 454.117 31.148L454.116 31.149Z" fill="white" stroke="#010101" stroke-width="1.5" stroke-linecap="round" stroke-linejoin="round"></path>
<path d="M432.016 24.8061C427.5 24.7631 420.304 26.3991 417.101 27.9021C415.881 28.4741 414.379 28.8321 413.352 29.7461C412.322 30.6631 411.898 32.0211 411.618 33.3411C410.797 37.2061 410.759 40.4221 410.828 42.7091C410.995 48.1971 417.618 47.8011 417.665 43.9731C417.724 39.1661 418.566 37.3821 418.258 33.4351C418.4 36.2941 417.927 36.4841 417.757 38.7841C417.587 41.0841 417.831 46.3231 419.66 47.4171C424.684 50.4221 423.883 43.4901 424.742 40.1651C425.599 36.8461 425.508 34.6951 425.93 31.2841C425.582 34.1511 425.667 35.6321 425.319 38.4981C425.164 39.7751 425.449 41.3181 425.808 42.5861C426.686 45.6891 429.65 46.9911 431.446 41.4001C432.685 37.5431 432.854 35.5261 432.547 30.9671C432.182 33.4501 432.589 35.3771 432.369 37.8941C431.988 42.2481 434.943 45.9991 437.764 41.1281C439.415 38.2761 439.636 34.1691 439.315 30.2321C438.983 26.1551 436.415 24.8471 432.018 24.8051L432.016 24.8061Z" fill="white" stroke="#010101" stroke-width="1.5" stroke-linecap="round" stroke-linejoin="round"></path>
<path d="M413.564 47.794C415.059 45.843 416.566 43.879 418.416 42.261C420.266 40.643 422.504 39.377 424.943 39.075C427.692 38.735 430.468 39.644 432.879 41.006C433.86 41.56 434.907 42.383 434.897 43.51C434.888 44.459 434.073 45.248 433.17 45.54C432.267 45.832 431.29 45.737 430.345 45.639C428.695 45.467 427.045 45.296 425.395 45.124C425.089 45.092 424.772 45.062 424.481 45.159C424.084 45.292 423.803 45.639 423.548 45.971C421.679 48.401 419.958 50.945 418.398 53.585" fill="white"></path>
<path d="M413.564 47.794C415.059 45.843 416.566 43.879 418.416 42.261C420.266 40.643 422.504 39.377 424.943 39.075C427.692 38.735 430.468 39.644 432.879 41.006C433.86 41.56 434.907 42.383 434.897 43.51C434.888 44.459 434.073 45.248 433.17 45.54C432.267 45.832 431.29 45.737 430.345 45.639C428.695 45.467 427.045 45.296 425.395 45.124C425.089 45.092 424.772 45.062 424.481 45.159C424.084 45.292 423.803 45.639 423.548 45.971C421.679 48.401 419.958 50.945 418.398 53.585" stroke="#010101" stroke-width="1.5" stroke-linecap="round" stroke-linejoin="round"></path>
<path d="M200.237 86.4441C204.496 84.8371 210.135 82.1271 214.394 80.5201C215.044 80.2751 216.268 79.6231 216.268 79.6231C216.268 79.6231 217.971 77.6301 218.559 76.4501C221.259 75.7791 223.908 74.9061 226.478 73.8411C227.362 75.8681 228.247 77.8961 229.131 79.9231C227.548 80.5491 225.965 81.1751 224.383 81.8021C223.228 82.2591 220.814 82.8231 220.814 82.8231C220.814 82.8231 218.672 82.3971 217.602 81.9801C212.089 84.6861 206.508 86.7001 200.828 89.1181C200.341 88.3821 198.784 89.1041 200.237 86.4441Z" fill="white" stroke="#010101" stroke-width="1.5" stroke-linecap="round" stroke-linejoin="round"></path>
<path d="M200.497 83.355C190.954 86.636 181.494 90.204 172.403 94.585C170.777 95.369 169.093 96.237 168.069 97.724C167.045 99.211 166.958 101.503 168.361 102.638C169.531 103.585 171.222 103.417 172.698 103.121C177.838 102.093 182.738 100.135 187.604 98.188C193.184 95.956 198.763 93.723 204.343 91.491C202.822 89.264 201.593 86.838 200.497 83.354V83.355Z" fill="white" stroke="#010101" stroke-width="1.5" stroke-linecap="round" stroke-linejoin="round"></path>
<path d="M177.269 88.819C175.939 89.191 175.014 90.462 174.663 91.798C174.312 93.134 174.433 94.543 174.558 95.918C174.726 97.779 174.901 99.67 175.591 101.406C175.819 101.98 176.131 102.564 176.667 102.87C177.52 103.358 178.666 102.941 179.29 102.182C179.914 101.423 180.134 100.417 180.288 99.446C180.757 96.491 180.796 93.468 180.402 90.501C180.327 93.335 180.612 96.179 181.248 98.942C181.42 99.691 181.678 100.515 182.351 100.886C183.078 101.287 184.006 100.984 184.673 100.488C186.538 99.102 187.078 96.518 186.934 94.198C186.79 91.878 186.109 89.605 186.116 87.281C186.054 89.771 186.326 92.269 186.921 94.687C187.127 95.525 187.386 96.381 187.942 97.041C188.498 97.701 189.424 98.12 190.243 97.847C191.477 97.435 191.779 95.856 191.846 94.557C192.005 91.51 192.008 88.454 191.854 85.407C191.831 88.017 192.28 90.631 193.173 93.084C193.7 94.533 194.799 96.171 196.326 95.951C197.993 95.711 198.479 93.556 198.481 91.872C198.484 88.932 198.218 85.992 197.687 83.1C197.631 82.795 197.565 82.476 197.365 82.239C197.02 81.83 196.409 81.802 195.874 81.82C188.279 82.063 180.787 84.839 177.269 88.819Z" fill="white" stroke="#010101" stroke-width="1.5" stroke-linecap="round" stroke-linejoin="round"></path>
<path d="M202.691 100.673C200.788 98.42 200.071 94.98 197.385 93.762C196.263 93.253 194.978 93.246 193.753 93.374C191.253 93.636 188.809 94.43 186.632 95.688C186.355 95.848 186.057 96.05 185.997 96.364C185.951 96.602 186.058 96.844 186.193 97.045C187.158 98.483 189.222 98.448 190.909 98.84C193.532 99.448 195.758 101.534 196.537 104.112" fill="white"></path>
<path d="M202.691 100.673C200.788 98.42 200.071 94.98 197.385 93.762C196.263 93.253 194.978 93.246 193.753 93.374C191.253 93.636 188.809 94.43 186.632 95.688C186.355 95.848 186.057 96.05 185.997 96.364C185.951 96.602 186.058 96.844 186.193 97.045C187.158 98.483 189.222 98.448 190.909 98.84C193.532 99.448 195.758 101.534 196.537 104.112" stroke="#010101" stroke-width="1.5" stroke-linecap="round" stroke-linejoin="round"></path>
<path d="M102.148 379.876C96.62 370.547 88.137 363.05 78.27 358.775C75.04 357.375 71.359 356.313 68.065 357.541C64.73 358.784 62.54 362.196 61.82 365.726C61.1 369.256 61.624 372.918 62.296 376.459C65.686 394.306 72.825 410.638 80.282 427.17C102.275 427.193 126.126 426.876 126.126 426.876C119.455 407.159 111.285 393.116 102.148 379.876Z" fill="#55D087" stroke="#010101" stroke-width="1.5" stroke-linecap="round" stroke-linejoin="round"></path>
<path d="M125.711 427.121C116.662 411.552 108.491 394.494 101.075 378.063C97.899 371.026 94.819 363.64 94.949 355.906C95.044 350.271 97.463 344.072 102.639 342.03C106.182 340.633 110.212 341.494 113.736 342.949C121.109 345.993 127.254 351.439 132.891 357.141C151.683 376.149 166.518 399.521 175.644 426.795C156.351 427.12 141.138 427.283 125.711 427.12V427.121Z" fill="#55D087" stroke="#010101" stroke-width="1.5" stroke-linecap="round" stroke-linejoin="round"></path>
<path d="M105.336 427.169C96.108 403.199 84.173 380.3 69.839 359.063" stroke="#010101" stroke-width="1.5" stroke-linecap="round" stroke-linejoin="round"></path>
<path d="M92.659 400.403C84.026 397.374 75.392 394.345 66.759 391.316" stroke="#010101" stroke-width="1.5" stroke-linecap="round" stroke-linejoin="round"></path>
<path d="M111.285 399.062C107.336 404.46 103.386 409.858 99.437 415.256" stroke="#010101" stroke-width="1.5" stroke-linecap="round" stroke-linejoin="round"></path>
<path d="M151.228 425.827C134.493 399.486 117.758 373.146 101.023 346.805" stroke="#010101" stroke-width="1.5" stroke-linecap="round" stroke-linejoin="round"></path>
<path d="M131.857 357.534C130.612 366.873 129.109 376.176 127.35 385.428" stroke="#010101" stroke-width="1.5" stroke-linecap="round" stroke-linejoin="round"></path>
<path d="M134.638 400.48C125.558 397.858 116.702 394.432 108.206 390.253" stroke="#010101" stroke-width="1.5" stroke-linecap="round" stroke-linejoin="round"></path>
<path d="M165.6 401.964C161.281 410.133 156.627 418.119 151.656 425.896" stroke="#010101" stroke-width="1.5" stroke-linecap="round" stroke-linejoin="round"></path>
<path d="M179.607 402.331L167.919 426.795L311.171 426.19L179.607 402.331Z" fill="#010101" stroke="#010101" stroke-width="1.5" stroke-linecap="round" stroke-linejoin="round"></path>
<path d="M494.88 312.032C492.99 311.776 490.991 312.691 489.948 314.287C488.905 315.883 488.871 318.082 489.864 319.71C491.633 322.61 496.485 322.746 498.492 320.006C500.5 317.266 499.044 312.595 494.88 312.032Z" fill="#010101"></path>
<path d="M86.974 95.914C85.084 95.658 83.085 96.573 82.042 98.169C80.999 99.766 80.965 101.964 81.958 103.592C83.727 106.492 88.579 106.628 90.586 103.888C92.594 101.148 91.138 96.477 86.974 95.914Z" fill="#010101"></path>
<path d="M70.105 270.217C69.291 270.107 68.429 270.501 67.979 271.189C67.529 271.877 67.515 272.824 67.943 273.526C68.705 274.776 70.796 274.834 71.661 273.654C72.526 272.473 71.899 270.459 70.105 270.217Z" fill="#010101"></path>
<path d="M0.75 417.208L5.471 413.302C5.277 413.412 5.083 413.523 0.75 417.208Z" stroke="#010101" stroke-width="1.5" stroke-linecap="round" stroke-linejoin="round"></path>
<path d="M500.759 188.14L506.295 189.44" stroke="#010101" stroke-width="1.5" stroke-linecap="round" stroke-linejoin="round"></path>
<path d="M217.599 303.678C220.139 305.557 222.68 307.436 225.22 309.315" stroke="#010101" stroke-width="1.5" stroke-linecap="round" stroke-linejoin="round"></path>
<path d="M224.565 340.626C227.627 337.893 228.482 337.366 231.543 334.633C231.304 334.967 233.272 333.094 224.565 340.626Z" stroke="#010101" stroke-width="1.5" stroke-linecap="round" stroke-linejoin="round"></path>
<path d="M277.872 304.892C278.86 307.927 279.848 309.858 280.836 312.892" stroke="#010101" stroke-width="1.5" stroke-linecap="round" stroke-linejoin="round"></path>
<path d="M299.087 336.562C302.12 337.274 305.153 337.986 308.186 338.699" stroke="#010101" stroke-width="1.5" stroke-linecap="round" stroke-linejoin="round"></path>
<path d="M262.476 379.105C265.062 376.965 266.545 375.928 269.132 373.788C268.813 373.969 269.598 373.047 262.476 379.105Z" stroke="#010101" stroke-width="1.5" stroke-linecap="round" stroke-linejoin="round"></path>
<path d="M263.343 337.665C262.625 340.838 261.906 342.907 261.188 346.08" stroke="#010101" stroke-width="1.5" stroke-linecap="round" stroke-linejoin="round"></path>
<path d="M370.513 236.306C369.795 239.479 369.076 242.652 368.358 245.825" stroke="#010101" stroke-width="1.5" stroke-linecap="round" stroke-linejoin="round"></path>
<path d="M224.284 375.849C226.401 377.402 228.518 378.954 230.635 380.507" stroke="#010101" stroke-width="1.5" stroke-linecap="round" stroke-linejoin="round"></path>
<path d="M312.566 301.682C315.443 300.376 318.321 299.071 321.198 297.765" stroke="#010101" stroke-width="1.5" stroke-linecap="round" stroke-linejoin="round"></path>
<path d="M292.621 405.073C289.888 402.011 289.361 401.156 286.628 398.095C286.962 398.334 285.089 396.366 292.621 405.073Z" stroke="#010101" stroke-width="1.5" stroke-linecap="round" stroke-linejoin="round"></path>
<path d="M346.141 271.684C348.681 273.563 351.222 275.442 353.762 277.321" stroke="#010101" stroke-width="1.5" stroke-linecap="round" stroke-linejoin="round"></path>
<path d="M305.479 367.891C308.019 369.77 309.456 370.545 311.997 372.424" stroke="#010101" stroke-width="1.5" stroke-linecap="round" stroke-linejoin="round"></path>
<path d="M199.852 271.282C202.885 271.994 205.918 272.706 208.951 273.419" stroke="#010101" stroke-width="1.5" stroke-linecap="round" stroke-linejoin="round"></path>
<path d="M203.769 380.669C203.051 383.842 202.332 385.911 201.614 389.084" stroke="#010101" stroke-width="1.5" stroke-linecap="round" stroke-linejoin="round"></path>
<path d="M248.923 403.407C252.762 401.954 253.29 401.605 257.128 400.152C256.785 400.378 259.753 399.5 248.923 403.407Z" stroke="#010101" stroke-width="1.5" stroke-linecap="round" stroke-linejoin="round"></path>
</g>
<defs>
<clipPath id="clip0_35_2194">
<rect width="507.045" height="429.493" fill="white"></rect>
</clipPath>
</defs>
</svg>